G04 #@! TF.GenerationSoftware,KiCad,Pcbnew,(5.1.9)-1*
G04 #@! TF.CreationDate,2021-03-09T11:18:01-06:00*
G04 #@! TF.ProjectId,altbier_pcb_3d6,616c7462-6965-4725-9f70-63625f336436,2*
G04 #@! TF.SameCoordinates,Original*
G04 #@! TF.FileFunction,Soldermask,Bot*
G04 #@! TF.FilePolarity,Negative*
%FSLAX46Y46*%
G04 Gerber Fmt 4.6, Leading zero omitted, Abs format (unit mm)*
G04 Created by KiCad (PCBNEW (5.1.9)-1) date 2021-03-09 11:18:01*
%MOMM*%
%LPD*%
G01*
G04 APERTURE LIST*
G04 #@! TA.AperFunction,Profile*
%ADD10C,0.100000*%
G04 #@! TD*
G04 #@! TA.AperFunction,Profile*
%ADD11C,0.050000*%
G04 #@! TD*
%ADD12R,1.700000X1.700000*%
%ADD13O,1.700000X1.700000*%
%ADD14C,0.900000*%
%ADD15C,0.500000*%
G04 APERTURE END LIST*
D10*
X111714600Y-49796200D02*
X111714600Y-45986200D01*
X119334600Y-49796200D02*
X111714600Y-49796200D01*
X111714600Y-45986200D02*
X119334600Y-45986200D01*
X119334600Y-45986200D02*
X119334600Y-49796200D01*
X175384600Y-49796200D02*
X175384600Y-45986200D01*
X183004600Y-49796200D02*
X175384600Y-49796200D01*
X175384600Y-45986200D02*
X183004600Y-45986200D01*
X183004600Y-45986200D02*
X183004600Y-49796200D01*
X151154600Y-29286200D02*
X151154600Y-33096200D01*
X143534600Y-29286200D02*
X151154600Y-29286200D01*
X143534600Y-33096200D02*
X143534600Y-29286200D01*
X151154600Y-33096200D02*
X143534600Y-33096200D01*
D11*
X86741000Y-57889000D02*
X147362778Y-22889000D01*
X147362778Y-162889000D02*
X207984556Y-127889000D01*
X207984556Y-57889000D02*
X147362778Y-22889000D01*
X147362778Y-162889000D02*
X86741000Y-127889000D01*
X86741000Y-57889000D02*
X86741000Y-127889000D01*
X207984556Y-57889000D02*
X207984556Y-127889000D01*
D12*
G04 #@! TO.C,J2*
X203708000Y-112522000D03*
D13*
X203708000Y-109982000D03*
G04 #@! TD*
D14*
G04 #@! TO.C,SW1*
X204627000Y-102465000D03*
X204627000Y-99465000D03*
G04 #@! TD*
D15*
G04 #@! TO.C,J1*
X203147000Y-78137000D03*
X203147000Y-82137000D03*
G04 #@! TD*
M02*
