G04 #@! TF.GenerationSoftware,KiCad,Pcbnew,(5.1.9)-1*
G04 #@! TF.CreationDate,2021-03-09T11:18:01-06:00*
G04 #@! TF.ProjectId,altbier_pcb_3d6,616c7462-6965-4725-9f70-63625f336436,2*
G04 #@! TF.SameCoordinates,Original*
G04 #@! TF.FileFunction,Copper,L2,Bot*
G04 #@! TF.FilePolarity,Positive*
%FSLAX46Y46*%
G04 Gerber Fmt 4.6, Leading zero omitted, Abs format (unit mm)*
G04 Created by KiCad (PCBNEW (5.1.9)-1) date 2021-03-09 11:18:01*
%MOMM*%
%LPD*%
G01*
G04 APERTURE LIST*
G04 #@! TA.AperFunction,Profile*
%ADD10C,0.100000*%
G04 #@! TD*
G04 #@! TA.AperFunction,Profile*
%ADD11C,0.050000*%
G04 #@! TD*
G04 #@! TA.AperFunction,ComponentPad*
%ADD12R,1.700000X1.700000*%
G04 #@! TD*
G04 #@! TA.AperFunction,ComponentPad*
%ADD13O,1.700000X1.700000*%
G04 #@! TD*
G04 #@! TA.AperFunction,ViaPad*
%ADD14C,0.800000*%
G04 #@! TD*
G04 #@! TA.AperFunction,Conductor*
%ADD15C,0.400000*%
G04 #@! TD*
G04 #@! TA.AperFunction,Conductor*
%ADD16C,0.500000*%
G04 #@! TD*
G04 APERTURE END LIST*
D10*
X111714600Y-49796200D02*
X111714600Y-45986200D01*
X119334600Y-49796200D02*
X111714600Y-49796200D01*
X111714600Y-45986200D02*
X119334600Y-45986200D01*
X119334600Y-45986200D02*
X119334600Y-49796200D01*
X175384600Y-49796200D02*
X175384600Y-45986200D01*
X183004600Y-49796200D02*
X175384600Y-49796200D01*
X175384600Y-45986200D02*
X183004600Y-45986200D01*
X183004600Y-45986200D02*
X183004600Y-49796200D01*
X151154600Y-29286200D02*
X151154600Y-33096200D01*
X143534600Y-29286200D02*
X151154600Y-29286200D01*
X143534600Y-33096200D02*
X143534600Y-29286200D01*
X151154600Y-33096200D02*
X143534600Y-33096200D01*
D11*
X86741000Y-57889000D02*
X147362778Y-22889000D01*
X147362778Y-162889000D02*
X207984556Y-127889000D01*
X207984556Y-57889000D02*
X147362778Y-22889000D01*
X147362778Y-162889000D02*
X86741000Y-127889000D01*
X86741000Y-57889000D02*
X86741000Y-127889000D01*
X207984556Y-57889000D02*
X207984556Y-127889000D01*
D12*
G04 #@! TO.P,J2,1*
G04 #@! TO.N,GND*
X203708000Y-112522000D03*
D13*
G04 #@! TO.P,J2,2*
G04 #@! TO.N,BAT-PWR*
X203708000Y-109982000D03*
G04 #@! TD*
D14*
G04 #@! TO.N,V33*
X197078600Y-69570600D03*
X200660000Y-89916000D03*
G04 #@! TO.N,GND*
X195961000Y-73533000D03*
X147345400Y-72059800D03*
X149402800Y-77139800D03*
X124917200Y-72110600D03*
X126923800Y-77266800D03*
X172821600Y-72466200D03*
X168325800Y-76301600D03*
X172142000Y-65043200D03*
X168402000Y-67208400D03*
X162331400Y-64414400D03*
G04 #@! TO.N,VCC*
X200329800Y-100203000D03*
X197101700Y-70944500D03*
G04 #@! TD*
D15*
G04 #@! TO.N,V33*
X200660000Y-89916000D02*
X200660000Y-70815200D01*
X199415400Y-69570600D02*
X197078600Y-69570600D01*
X200660000Y-70815200D02*
X199415400Y-69570600D01*
D16*
G04 #@! TO.N,GND*
X203708000Y-112522000D02*
X202158600Y-112522000D01*
X202158600Y-112522000D02*
X195961000Y-106324400D01*
X173888400Y-73533000D02*
X172821600Y-72466200D01*
X171119800Y-76301600D02*
X173888400Y-73533000D01*
X168325800Y-76301600D02*
X171119800Y-76301600D01*
X172142000Y-65043200D02*
X172142000Y-66859000D01*
X178816000Y-73533000D02*
X173888400Y-73533000D01*
X172142000Y-66859000D02*
X178816000Y-73533000D01*
X168402000Y-68046600D02*
X172821600Y-72466200D01*
X168402000Y-67208400D02*
X168402000Y-68046600D01*
X171513200Y-64414400D02*
X172142000Y-65043200D01*
X162331400Y-64414400D02*
X171513200Y-64414400D01*
X195961000Y-73533000D02*
X194792600Y-73533000D01*
X147345400Y-72059800D02*
X147345400Y-73025000D01*
X187198000Y-82296000D02*
X134340600Y-82296000D01*
X124917200Y-72110600D02*
X124917200Y-72872600D01*
X130683000Y-78638400D02*
X130045550Y-78000950D01*
X134340600Y-82296000D02*
X130683000Y-78638400D01*
X187198000Y-82296000D02*
X195961000Y-82296000D01*
X195961000Y-106324400D02*
X195961000Y-82296000D01*
X195707000Y-80238600D02*
X195961000Y-79984600D01*
X154559000Y-80238600D02*
X195707000Y-80238600D01*
X195961000Y-82296000D02*
X195961000Y-79984600D01*
X178816000Y-73533000D02*
X180949600Y-73533000D01*
X185242200Y-77825600D02*
X195961000Y-77825600D01*
X180949600Y-73533000D02*
X185242200Y-77825600D01*
X195961000Y-77825600D02*
X195961000Y-73533000D01*
X195961000Y-79984600D02*
X195961000Y-77825600D01*
X151460200Y-77139800D02*
X151511000Y-77190600D01*
X151511000Y-77190600D02*
X154559000Y-80238600D01*
X149402800Y-77139800D02*
X151460200Y-77139800D01*
X147345400Y-73025000D02*
X151511000Y-77190600D01*
X128549400Y-77266800D02*
X128930400Y-76885800D01*
X126923800Y-77266800D02*
X128549400Y-77266800D01*
X128930400Y-76885800D02*
X130683000Y-78638400D01*
X124917200Y-72872600D02*
X128930400Y-76885800D01*
D15*
G04 #@! TO.N,VCC*
X200329800Y-100203000D02*
X199466200Y-100203000D01*
X199466200Y-100203000D02*
X198424800Y-99161600D01*
X198036500Y-70944500D02*
X197101700Y-70944500D01*
X198424800Y-71332800D02*
X198036500Y-70944500D01*
X198424800Y-99161600D02*
X198424800Y-71332800D01*
G04 #@! TD*
M02*
